Another Fine Release Brought to you from - IMAGiNE


********************************************************************************************************************
Transformers Dark Of The Moon 2011 TS XViD - IMAGiNE
********************************************************************************************************************

Ripper ...........: IMAGiNEIMDB Rating.......: 7.0/10
Video Codec.......: XVID Release Date......: 02/07/11
Audio Codec.......: MP3Theatre Date......: 29/06/11
Audio Bitrate.....: 128Runtime.......: 2h 25mn
Subtitles.........: ENG WHEN NEEDEDLanguage..........: ENGLISH
Resolution......: 720 x 288IMDb URL..........: http://www.imdb.com/title/tt1399103/


DETAILS:

Video
ID : 0
Format : MPEG-4 Visual
Format profile : Advanced Simple@L5
Format settings, BVOP: 2
Format settings, QPel: No
Format settings, GMC : No warppoints
Format settings, Matrix: Default (MPEG)
Muxing mode: Packed bitstream
Codec ID : XVID
Codec ID/Hint: XviD
Duration : 2h 25mn
Bit rate : 1 792 Kbps
Width: 720 pixels
Height : 288 pixels
Display aspect ratio : 2.500
Frame rate : 23.976 fps
Color space: YUV
Chroma subsampling : 4:2:0
Bit depth: 8 bits
Scan type: Progressive
Compression mode : Lossy
Bits/(Pixel*Frame) : 0.360
Stream size: 1.83 GiB (93%)
Writing library: XviD 1.2.1 (UTC 2008-12-04)

Audio
ID : 1
Format : MPEG Audio
Format version : Version 1
Format profile : Layer 3
Codec ID : 55
Codec ID/Hint: MP3
Duration : 2h 25mn
Bit rate mode: Constant
Bit rate : 128 Kbps
Channel(s) : 2 channels
Sampling rate: 44.1 KHz
Compression mode : Lossy
Stream size: 134 MiB (7%)
Alignment: Split accross interleaves
Interleave, duration : 42 ms (1.00 video frame)



SOURCES:

VIDEO: ............. Thanx Mate :P
AUDIO: ............. Thanks Matey :D

NOTES:

IMAGiNE bringing you another release..........
Transformers Dark Of The Moon TS...........
Ok heres our first go at Transformers.........
Source was very nice 1080p cam which didnt need much work :D
First we made a script to crop resize and rotate........
Next we adjusted the RBG and brightness to level things
out as it was a bit green from the source :P
Audio is nice LiNE we filtered synced and muxed to our encode
Now it aint gonna get much better than this folks
Enjoy!
SCREENS:	